<?xml version="1.0" encoding="UTF-8" standalone="no"?>
<!DOCTYPE svg PUBLIC "-//W3C//DTD SVG 1.1//EN" "http://www.w3.org/Graphics/SVG/1.1/DTD/svg11.dtd">
<svg width="100%" height="100%" viewBox="0 0 1080 1080" version="1.1" xmlns="http://www.w3.org/2000/svg" xmlns:xlink="http://www.w3.org/1999/xlink" xml:space="preserve" xmlns:serif="http://www.serif.com/" style="fill-rule:evenodd;clip-rule:evenodd;stroke-linejoin:round;stroke-miterlimit:2;">
    <g id="check-solid.svg" transform="matrix(1.00131,0,0,1.00131,835.958,807.803)">
        <g transform="matrix(1,0,0,1,-224,-256)">
            <clipPath id="_clip1">
                <rect x="0" y="0" width="448" height="512"/>
            </clipPath>
            <g clip-path="url(#_clip1)">
                <path d="M438.6,105.4C451.1,117.9 451.1,138.2 438.6,150.7L182.6,406.7C170.1,419.2 149.8,419.2 137.3,406.7L9.3,278.7C-3.2,266.2 -3.2,245.9 9.3,233.4C21.8,220.9 42.1,220.9 54.6,233.4L160,338.7L393.4,105.4C405.9,92.9 426.2,92.9 438.7,105.4L438.6,105.4Z" style="fill-rule:nonzero;"/>
            </g>
        </g>
    </g>
    <g id="xmark-solid.svg" transform="matrix(1.00131,0,0,1.00131,242.599,807.803)">
        <g transform="matrix(1,0,0,1,-192,-256)">
            <path d="M342.6,150.6C355.1,138.1 355.1,117.8 342.6,105.3C330.1,92.8 309.8,92.8 297.3,105.3L192,210.7L86.6,105.4C74.1,92.9 53.8,92.9 41.3,105.4C28.8,117.9 28.8,138.2 41.3,150.7L146.7,256L41.4,361.4C28.9,373.9 28.9,394.2 41.4,406.7C53.9,419.2 74.2,419.2 86.7,406.7L192,301.3L297.4,406.6C309.9,419.1 330.2,419.1 342.7,406.6C355.2,394.1 355.2,373.8 342.7,361.3L237.3,256L342.6,150.6Z" style="fill-rule:nonzero;"/>
        </g>
    </g>
    <g id="question-solid.svg" transform="matrix(1.27175,0,0,1.27175,540,325.567)">
        <g transform="matrix(1,0,0,1,-160,-256)">
            <path d="M80,160C80,124.7 108.7,96 144,96L176,96C211.3,96 240,124.7 240,160L240,163.6C240,185.4 228.9,205.7 210.6,217.4L168.4,244.5C143.2,260.7 128,288.6 128,318.5L128,320C128,337.7 142.3,352 160,352C177.7,352 192,337.7 192,320L192,318.6C192,310.4 196.2,302.8 203,298.4L245.2,271.3C281.8,247.7 304,207.2 304,163.6L304,160C304,89.3 246.7,32 176,32L144,32C73.3,32 16,89.3 16,160C16,177.7 30.3,192 48,192C65.7,192 80,177.7 80,160ZM160,480C181.943,480 200,461.943 200,440C200,418.057 181.943,400 160,400C138.057,400 120,418.057 120,440C120,461.943 138.057,480 160,480Z" style="fill-rule:nonzero;"/>
        </g>
    </g>
</svg>
